<svg version="1.2" xmlns="http://www.w3.org/2000/svg" viewBox="0 0 2217 869" width="2217" height="869">
	<style>
		.s0 { fill: #ffffff;stroke: #ffffff;stroke-miterlimit:100;stroke-width: .4 } 
	</style>
	<g id="Group 3">
		<path id="Object 4" class="s0" d="m382.34 818.97v45.4h-7.44v-31.1l-13.86 31.1h-5.15l-13.92-31.1v31.1h-7.45v-45.4h8.04l15.94 35.6 15.87-35.6z"/>
		<path id="Object 5" class="s0" d="m399.58 824.98v13.32h15.69v6.08h-15.69v13.91h17.65v6.08h-25.1v-45.47h25.1v6.08z"/>
		<path id="Object 6" class="s0" d="m463.67 864.37h-7.45l-22.39-33.91v33.91h-7.48v-45.47h7.48l22.39 33.84v-33.84h7.45z"/>
		<path id="Object 7" fill-rule="evenodd" class="s0" d="m525.55 864.37l-5.63-5.62q-3.27 3.27-7.11 4.87-3.87 1.6-8.63 1.6-4.84 0-8.56-1.7-3.73-1.7-5.75-4.87-2.03-3.17-2.02-7.35-0.01-4.7 2.68-8.39 2.66-3.69 7.97-5.85-1.9-2.28-2.68-4.28-0.79-1.99-0.79-4.41 0-3 1.54-5.36 1.52-2.35 4.41-3.72 2.86-1.37 6.65-1.37 3.86 0 6.56 1.47 2.72 1.47 4.07 4.02 1.33 2.55 1.06 5.68h-7.44q0.07-2.42-1.18-3.76-1.24-1.33-3.39-1.33-2.16 0-3.5 1.27-1.33 1.27-1.34 3.1 0 1.77 1.03 3.49c0.66 1.16 1.86 2.65 3.54 4.48l12.03 11.96 4.64-7.65h8.04l-5.89 10.07-1.63 2.67 11.04 10.98zm-10.54-10.52l-12.01-12.08q-7.7 3.06-7.7 9.27-0.01 3.33 2.47 5.59 2.49 2.25 6.41 2.25 6.13 0 10.83-5.03z"/>
		<path id="Object 8" class="s0" d="m616.27 818.97l-13.44 45.4h-8.43l-9.54-34.36-10.13 34.36-8.37 0.06-12.86-45.46h7.9l9.41 36.97 10.19-36.97h8.36l9.47 36.78 9.47-36.78z"/>
		<path id="Object 9" fill-rule="evenodd" class="s0" d="m631.46 861.85q-5.32-2.97-8.42-8.29-3.11-5.33-3.11-11.99 0-6.66 3.11-11.96 3.1-5.29 8.42-8.26 5.33-2.97 11.67-2.97 6.41 0 11.72 2.97 5.33 2.97 8.4 8.26 3.07 5.3 3.07 11.96 0 6.66-3.07 11.99-3.07 5.32-8.4 8.29-5.31 2.98-11.72 2.97-6.34 0.01-11.67-2.97zm19.71-5.55q3.51-2.06 5.52-5.88 1.98-3.82 1.98-8.85 0-5.03-1.98-8.82-2.01-3.79-5.52-5.82-3.54-2.02-8.04-2.02c-3.02 0-5.67 0.68-8.03 2.02q-3.55 2.03-5.52 5.82-2.01 3.79-2 8.82-0.01 5.03 2 8.85 1.97 3.82 5.52 5.88c2.36 1.37 5.01 2.06 8.03 2.06q4.5 0 8.04-2.06z"/>
		<path id="Object 10" class="s0" d="m721.46 818.97v45.4h-7.45v-31.1l-13.85 31.1h-5.16l-13.92-31.1v31.1h-7.45v-45.4h8.04l15.94 35.6 15.88-35.6z"/>
		<path id="Object 11" class="s0" d="m738.69 824.98v13.32h15.7v6.08h-15.7v13.91h17.65v6.08h-25.09v-45.47h25.09v6.08z"/>
		<path id="Object 12" class="s0" d="m802.8 864.37h-7.45l-22.41-33.91v33.91h-7.45v-45.47h7.45l22.41 33.84v-33.84h7.45z"/>
		<path id="Object 13" fill-rule="evenodd" class="s0" d="m856.94 855.09h-19.01l-3.27 9.28h-7.76l16.26-45.47h8.62l16.26 45.47h-7.83zm-2.09-6.08l-7.38-21.1-7.45 21.1z"/>
		<path id="Object 14" fill-rule="evenodd" class="s0" d="m905.22 839.02q-1.63 3.07-5.22 5c-2.39 1.28-5.48 1.93-9.2 1.93h-8.25v18.42h-7.44v-45.4h15.69q5.22 0 8.83 1.79 3.64 1.8 5.43 4.87 1.8 3.07 1.79 6.86 0 3.46-1.63 6.53zm-8.09-1.08q2.09-1.92 2.09-5.45 0-7.45-8.42-7.45h-8.25v14.83h8.25q4.22 0 6.33-1.93z"/>
		<path id="Object 15" fill-rule="evenodd" class="s0" d="m944.1 839.02q-1.64 3.07-5.23 5-3.6 1.93-9.22 1.93h-8.22v18.42h-7.45v-45.4h15.67q5.25 0 8.86 1.79 3.63 1.8 5.43 4.87 1.8 3.07 1.79 6.86 0 3.46-1.63 6.53zm-8.11-1.08q2.1-1.92 2.09-5.45 0.01-7.45-8.43-7.45h-8.22v14.83h8.22q4.26 0 6.34-1.93z"/>
		<path id="Object 16" fill-rule="evenodd" class="s0" d="m980.23 855.09h-19.01l-3.27 9.28h-7.79l16.28-45.47h8.61l16.28 45.47h-7.83zm-2.09-6.08l-7.38-21.1-7.45 21.1z"/>
		<path id="Object 17" fill-rule="evenodd" class="s0" d="m1021.97 864.37l-10.45-18.16h-5.68v18.16h-7.45v-45.4h15.67q5.21-0.01 8.86 1.82 3.62 1.83 5.43 4.91 1.78 3.06 1.79 6.85 0 4.45-2.59 8.07-2.58 3.63-7.92 4.93l11.21 18.82zm-16.12-24.11h8.22q4.18 0 6.31-2.09 2.12-2.09 2.12-5.62-0.01-3.52-2.09-5.52-2.08-1.99-6.34-1.99h-8.22z"/>
		<path id="Object 18" class="s0" d="m1047.13 824.98v13.32h15.67v6.08h-15.67v13.91h17.62v6.08h-25.07v-45.47h25.07v6.08z"/>
		<path id="Object 19" class="s0" d="m1081.35 858.36h15.35v6.01h-22.8v-45.4h7.45z"/>
		<path id="Object 20" class="s0" d="m2163.2 249.88c-41.55 26.49-86.9 32.44-134.3 28.1-14.67-1.34-29.25-3.54-43.89-5.36-0.78-0.1-1.55-0.35-3.14-0.72 3.8-2.44 6.95-4.67 10.29-6.57 18.8-10.76 38.86-18.83 59-26.68 28.43-11.08 56.27-23.3 81.64-40.56 24.02-16.34 45.14-35.55 60.99-60.24 12.15-18.96 18.78-39.78 22.19-61.81 0.02-0.16-0.16-0.37-0.45-0.93-1.23 1.77-2.37 3.34-3.46 4.92-13.44 19.62-30.93 35.2-49.59 49.56-30.98 23.75-64.88 42.57-99.81 59.75-29.34 14.44-58.54 29.12-85.84 47.34-24.75 16.52-45.8 37.03-65.6 58.99-13.18 14.6-27.66 27.72-44.01 38.69-0.78 0.52-1.5 1.12-2.91 2.18 11.49 7.75 22.32 15.86 33.9 22.72 36.36 21.57 75.26 28.85 116.75 18.86 24.41-5.88 45.64-17.7 63.11-35.94 0.63-0.65 1.22-1.35 2.36-2.63-44.1 12.12-85.11 9.81-121.42-19.67q0.17-0.75 0.34-1.49c7.06 2.15 14.01 4.82 21.18 6.36 39.54 8.5 78.44 7.07 115.73-9.82 28.61-12.97 50.46-33.63 65.49-61.32 0.41-0.73 0.75-1.48 1.09-2.23 0.14-0.31 0.16-0.66 0.36-1.5z"/>
		<path id="Object 21" class="s0" d="m1904.98 219.4c6.31-11.35 14.72-21.09 24.44-29.78 12.3-11.01 24.73-21.88 34.67-35.24 12.04-16.16 20.85-33.65 20.6-54.25-0.09-8.49-2.27-16.96-3.54-25.45-0.07-0.53-0.44-0.98-0.87-1.98-1.5 4.88-2.74 9.24-4.15 13.56-7.06 21.75-19.65 40.31-34.86 56.91-13.6 14.82-28.43 28.54-42.72 42.74q-0.55-0.47-1.11-0.94c0.73-0.86 1.43-1.75 2.18-2.59 14.35-16.44 28.43-33.11 40.04-51.66 9.65-15.42 16.76-31.88 20.19-49.91 5.95-31.23-8.93-63.45-36.72-78.64-0.19-0.12-0.46-0.05-0.69-0.07-0.06 0.2-0.25 0.45-0.18 0.61 7.86 19.6 6.97 39.79 3.54 60-3.81 22.37-10.94 43.74-21.59 63.81-9.88 18.6-22.37 35.45-35.43 51.91-6.31 7.95-12.58 15.94-18.48 24.19-5.29 7.43-9.04 15.6-7.29 25.12 0.57 3.09 1.43 6.33 3.02 9 4.77 8.12 9.26 16.59 15.21 23.81 7.22 8.76 17.74 10.69 28.68 9.45 1.96-0.22 3.77-2.2 5.52-3.56 13.4-10.45 26.57-21.19 40.2-31.32 7.47-5.55 15.58-10.25 23.59-15.03 19.12-11.41 29.77-28.72 35.13-49.79 2.91-11.42 3.91-23 2.41-34.74-0.16-1.14-0.41-2.27-0.79-4.41-1.16 2.68-1.89 4.57-2.78 6.38-8.28 16.67-20 30.64-34.54 42.02-14.12 11.06-28.88 21.29-43.32 31.92-3.5 2.57-6.91 5.28-10.36 7.93z"/>
		<path id="Object 22" class="s0" d="m2015.19 504.19c38.26 26.07 79 32.61 123.31 18.16-0.5-0.75-0.62-1.15-0.84-1.23-48.83-16.76-94.13-40.57-137.51-68.34-30.38-19.45-60.86-38.77-91.72-57.43-23.8-14.38-49.12-25.74-75.91-33.5-0.89-0.26-1.8-0.45-2.84-0.3 6.11 3.4 12.31 6.71 18.37 10.23 44.51 25.79 81.34 59.85 110.48 102.29 15.08 21.97 27.02 45.71 39.58 69.11 10.58 19.7 22.25 38.68 35.83 56.47q1.47 1.96 2.93 3.92c0.05 0.07 0.21 0.05 0.55 0.1 7.08-36.43-2.91-69.02-22.23-99.48z"/>
		<path id="Object 23" class="s0" d="m1677.53 226.95c26.63 6.32 45.89 20.48 57.11 44.67 5.22 11.26 6.77 23.49 8.68 35.62 2.15 13.62 3.58 27.48 7.31 40.68 9.06 32.21 28.43 57.36 55.88 76.41q5.25 3.65 10.7 6.94 6.27 3.83 12.81 7.19c11.74 6.1 24 11.14 36.67 15.32 28.78 9.52 55.89 22.15 79.98 40.75 3.8 2.94 7.38 6.15 11.68 8.77-4.57-6.29-8.81-12.83-13.74-18.8-19.15-23.14-42.65-40.47-69.76-52.93q-0.03 4.4-1.32 9.11c-0.96 3.54-4.18 5.57-7.45 4.72-3.16-0.85-4.93-4.09-4.13-7.75q0.1-0.38 0.2-0.77 0.1-0.28 0.16-0.56c0.77-3.59 0.5-7.26-0.79-10.57-7.11-3.04-14.2-6.07-21.19-9.32q-6.44-2.98-12.74-6.27-1.19-0.63-2.39-1.27c-34.56-18.71-54.61-48.34-62.15-86.69-2.59-13.18-4.54-26.54-7.99-39.49-6.36-23.73-21.58-40.14-44.1-49.84-0.19-0.07-0.3-0.3-0.73-0.76 0.98-0.1 1.7-0.25 2.43-0.25 9.06 0.07 17.37-2.96 25.66-6.11 12.99-4.95 26.12-6.13 39.45-1.31 9.92 3.6 18.07 9.79 24.41 18.06 5.74 7.47 10.78 15.48 16.03 23.31 5.99 8.97 12.9 16.88 23.46 20.68 9.67 3.48 18.85 2.16 27.82-2.66-15.22-0.62-24.35-9.63-31.36-21.86-7.16-12.51-14.52-24.9-25.71-34.41-19.1-16.17-40.4-23.41-64.93-14.92-7.69 2.68-14.67 7.49-22.07 11.06-1.95 0.94-4.5 1.62-6.54 1.26-12.13-2.09-24.16-2.61-36.17 0.47-1.44 0.36-2.87 0.83-5.18 1.52z"/>
		<path id="Object 24" class="s0" d="m2196.75 166.99c-3.05 3.02-5.98 6.17-9.13 9.08-18.38 16.89-39.34 30-61.25 41.73-27.64 14.77-57.2 24.6-86.77 34.41-9.74 3.23-19.44 6.61-29.16 9.94-0.84 0.29-1.61 0.72-2.34 1.82 9.97 0.19 19.94 0.72 29.89 0.52 28.13-0.55 55.77-4.16 81.93-15.24 28.52-12.06 51.85-30.37 67.08-57.78 4.23-7.61 7.18-15.94 10.7-23.96q-0.48-0.26-0.95-0.52z"/>
		<path id="Object 25" class="s0" d="m1758.83 239.24c-1.46 4.51 1.09 9.32 5.61 10.67 4.17 1.25 9.19-1.47 10.42-5.66 1.27-4.33-1.3-9.1-5.59-10.44-4.4-1.36-9.06 1.07-10.44 5.43z"/>
		<path id="Object 26" class="s0" d="m1829.29 470.78c-11.03-0.17-21.66-0.8-32.31-0.39-18.92 0.74-37.02 5.91-54.64 13.48-14.35 6.16-28.91 11.71-44.19 14.6-11.61 2.2-23.19 2.71-34.77 0.7-0.73-0.13-1.61 0.52-2.45 0.81 0.59 0.67 1.04 1.61 1.77 1.95 12.01 5.61 24.75 7.79 37.97 7.62 13.08-0.17 25.82-2.74 38.38-6.77 23.98-7.7 48.21-8.78 72.66-5.54 21.87 2.89 39.81 14.25 57.16 26.94 12.27 8.99 22.17 20.55 31.91 32.34 10.56 12.77 23.14 23.13 38.29 29.57 6.56 2.8 13.69 4.32 20.59 6.3 0.68 0.2 1.64-0.49 2.46-0.77-0.5-0.64-0.87-1.58-1.53-1.87-16.3-7.23-29.27-18.91-40.14-33.11-7.82-10.2-15.02-20.94-22.37-31.52-15.24-21.91-34.88-38.3-58.3-49.92-1.7-0.84-2.2-1.69-1.97-3.73 1.04-9.84-1.36-18.75-6.68-26.71-2.59-3.87-3.95-8.1-3.63-12.89 0.77-11.17 10.53-19.58 21.18-18.32 10.66 1.26 17.79 12.02 15.36 23.14-0.09 0.45-0.25 0.89-0.34 1.34-0.59 2.73 0.56 5.06 2.83 5.65 2.25 0.59 4.57-0.81 5.3-3.47 2.77-10.14 0.9-19.17-5.7-26.86-9.2-10.73-25.48-11.77-36.68-2.46-11.38 9.48-13.94 26.05-5.77 38.47 4.04 6.13 6.2 12.77 5.77 20.34-0.02 0.53-0.14 1.06-0.16 1.08z"/>
		<path id="Object 27" class="s0" d="m300.96 427.52l3.02 113.07h-5.82q-2.79-7.33-4.29-11.13-8.86-24.28-14.42-36.17-9.87-21.25-28.59-38.96-14.16-13.4-29.34-19.48-15.19-6.07-34.15-6.07-28.59 0-49.58 12.4-18.46 10.88-34.4 31.24-15.94 20.36-26.05 46.42-14.43 36.68-14.42 83.47-0.01 39.72 9.86 71.59 9.87 31.88 28.84 53.38 34.91 39.97 92.58 39.97 28.85 0 51.87-10 23-9.99 35.65-28.2 14.68-20.99 21.26-56.66l5.81 1.01q-4.8 39.97-21.75 63.49-16.18 22.52-44.65 34.4-28.46 11.89-65.9 11.89-34.91 0-66.79-10.37-50.83-16.69-79.41-60.33-28.6-43.63-28.59-104.09 0-46.3 16.69-85.38 16.68-39.08 46.55-62.86 23-18.21 55.02-28.97 31.99-10.75 64.11-10.75 30.63 0 64.77 11.64l20.75 6.83q6.07 2.28 10.61 2.28 6.33 0 10.38-5.32 1.77-2.52 4.29-8.34z"/>
		<path id="Object 28" class="s0" d="m333.84 428.27l72.85-9.1v282.1l0.25 19.21q0 17.2 2.02 25.16 2.04 7.96 7.86 13.27 7.06 6.83 26.04 10.36v5.31h-111.82v-5.31q15.19-2.01 21.76-5.68 6.57-3.66 10.63-12.51 2.78-5.8 3.93-17.55 1.13-11.74 1.13-33.97v-198.28q0-25.76-1.27-36.37-1.27-10.61-5.56-17.18-4.29-7.07-10.36-10.1-6.09-3.03-17.46-3.79z"/>
		<path id="Object 29" fill-rule="evenodd" class="s0" d="m465.12 667.83q0-40.98 30.36-73.1 36.93-38.96 88.29-38.96 51.34 0 88.02 38.96 30.36 32.38 30.37 73.36 0 40.47-28.85 72.09-35.42 38.96-89.54 38.96-54.15 0-89.81-38.96-13.9-15.18-21.37-33.9-7.47-18.72-7.47-38.45zm46.05-2.9q-0.01 43.96 19.74 74.53 22.24 34.11 54.36 34.11c9.13 0 17.96-2.52 26.57-7.57q12.92-7.58 22.26-21.23 9.87-14.15 15.94-35.5 6.07-21.35 6.08-41.31 0-20.72-6.47-41.81-6.43-21.1-17.32-36.26-20.74-28.56-50.85-28.56-28.58 0.01-49.32 30.07-20.99 30.07-20.99 73.53z"/>
		<path id="Object 30" class="s0" d="m790.17 559.56h64.27v9.62h-64.27v147.22q0.02 26.56 9.09 37.95 4.8 6.32 12.6 9.86 7.84 3.54 16.9 3.54 11.35 0.01 18.91-4.68 7.56-4.68 16.65-17.07l3.77 3.29q-8.34 15.18-23.39 22.51-15.05 7.34-37.56 7.34-29.86 0-43.51-11.64-7.35-6.07-9.63-14.55-2.26-8.47-2.27-30.48v-153.29h-27.07v-4.05q16.45-5.31 30.38-20.49 8.42-9.36 13.49-18.59 5.11-9.24 9.68-23.91l2.54-8.35h9.42z"/>
		<path id="Object 31" class="s0" d="m934.63 419.17v173.24q8.85-10.86 15.69-16.92 6.81-6.07 16.44-10.62 18.46-9.1 41.99-9.1 29.84 0 49.32 11.87 13.91 8.85 19.1 21.61 5.18 12.76 5.18 38.27v73.78l0.27 19.21q-0.01 17.18 2.02 25.14 2.01 7.96 7.84 13.26 7.08 6.83 26.04 10.36v5.31h-111.7v-5.31q13.36-1.77 19.05-4.29 5.66-2.53 10.22-8.59 4.54-6.32 6.31-17.18 1.76-10.87 1.75-32.09v-80.09q0-18.19-2.77-28.8c-1.84-7.08-4.97-13.23-9.33-18.45q-12.87-14.9-36.36-14.9-61.07 0-61.06 96.51v40.42l0.25 18.7q0 17.18 2.02 25.14 2.01 7.96 7.83 13.26 7.06 6.83 25.98 10.36v5.31h-111.73v-5.31q15.19-2.01 21.76-5.68 6.57-3.66 10.63-12.51 2.78-5.8 3.92-17.55 1.13-11.74 1.14-33.97v-198.28q-0.01-25.76-1.27-36.37-1.27-10.61-5.57-17.18-4.28-7.07-10.37-10.1-6.07-3.03-17.44-3.79v-5.57z"/>
		<path id="Object 32" class="s0" d="m1122.84 559.56h98.15v5.57q-10.39 1.51-14.92 4.04-9.88 5.56-9.88 17.18 0 10.1 10.33 36.11l42.28 108.36 36.93-91.18q13.68-34.1 13.67-48.24 0-11.37-6.31-18.06-6.33-6.69-18.49-8.21v-5.57h72.35v5.57q-10.87 3.04-16.05 6.32-5.19 3.29-9.99 10.38-7.35 11.13-23.28 49.83l-73.35 178.08c-8.79 21.26-15.85 35.08-21.26 41.49q-13.66 15.94-34.65 15.94-13.41 0-21.64-5.19-8.22-5.18-8.22-13.53 0.01-6.58 4.79-10.5 4.8-3.92 12.63-3.92 6.54 0 15.12 3.54 8.34 3.29 10.72 4.05 2.41 0.76 5.68 0.76 15.63 0 25.48-23.62l7.81-19.31q5.04-12.19 5.04-18.79 0-9.35-9.56-32.6l-52.44-126.08-7.56-18.19q-6.81-16.17-10.63-23-3.77-6.81-7.58-9.85-6.33-4.8-15.17-5.81z"/>
		<path id="Object 33" class="s0" d="m1422.6 569.18v132.13l0.25 19.2q0 17.18 2.02 25.14 2.04 7.96 7.85 13.26 7.07 6.83 26.05 10.36v5.31h-111.82v-5.31q15.19-2.02 21.76-5.68 6.57-3.66 10.63-12.51 2.78-5.81 3.92-17.56 1.13-11.75 1.14-33.98v-130.36h-36.67v-9.62h36.67v-61.72q0-22.26 5.72-35.16 5.73-12.9 20.51-23.78 13.22-9.61 32.34-15.05c12.71-3.63 26.18-5.44 40.33-5.44q19.75 0 31.63 6.83 11.88 6.83 11.88 18.21 0 7.59-4.93 12.65-4.93 5.06-12.01 5.06-6.82 0-11.9-3.67-5.05-3.66-10.11-12.01-7.08-11.64-11.65-15.31-4.53-3.66-12.37-3.67-9.64 0.01-18.22 3.92-8.61 3.93-13.42 10.25-5.3 7.09-7.33 18.59-2.02 11.52-2.02 33.27v67.03h49.84v9.62z"/>
		<path id="Object 34" class="s0" d="m1494.7 428.27l72.85-9.1v282.1l0.25 19.21q-0.01 17.2 2.02 25.16 2.01 7.96 7.83 13.27 7.09 6.83 26.07 10.36v5.31h-111.82v-5.31q15.19-2.01 21.76-5.68 6.57-3.66 10.63-12.51 2.78-5.8 3.93-17.55 1.13-11.74 1.13-33.97v-198.28q0-25.76-1.27-36.37-1.27-10.61-5.56-17.18-4.31-7.07-10.38-10.1-6.07-3.03-17.44-3.79z"/>
		<path id="Object 35" class="s0" d="m1609.79 559.56h98.15v5.57q-10.36 1.51-14.92 4.04-9.88 5.56-9.88 17.18 0 10.1 10.33 36.11l42.28 108.36 36.95-91.18q13.65-34.1 13.65-48.24-0.01-11.37-6.31-18.06-6.34-6.69-18.47-8.21v-5.57h72.35v5.57q-10.9 3.04-16.07 6.32-5.19 3.29-10 10.38-7.33 11.13-23.27 49.83l-73.35 178.08q-13.15 31.88-21.26 41.49-13.65 15.94-34.65 15.94-13.42 0-21.62-5.19-8.23-5.18-8.22-13.53-0.01-6.58 4.79-10.5c3.18-2.62 7.4-3.92 12.6-3.92q6.57 0 15.15 3.54 8.31 3.29 10.72 4.05 2.38 0.76 5.68 0.76 15.64 0 25.45-23.62l7.84-19.31q5.04-12.19 5.04-18.79-0.01-9.35-9.58-32.6l-52.44-126.08-7.54-18.19q-6.85-16.17-10.63-23-3.8-6.81-7.6-9.85-6.31-4.8-15.17-5.81z"/>
	</g>
</svg>